<svg width="1016" height="229" viewBox="0 0 1016 229" fill="none" xmlns="http://www.w3.org/2000/svg" xmlns:xlink="http://www.w3.org/1999/xlink">
    <mask id="path-1-inside-1" fill="white">
        <rect y="1" width="1016" height="228" rx="8"/>
    </mask>
    <rect y="1" width="1016" height="228" rx="8" fill="#313131"/>
    <rect y="1" width="1016" height="228" rx="8" stroke="url(#paint0_linear)" stroke-width="16.9417" mask="url(#path-1-inside-1)"/>
    <rect width="1016" height="221" rx="8" fill="#20232A"/>
    <style type="text/css">
        <![CDATA[
            .b {
                fill: #60D9FB;
            }

            .y {
                fill: #FFCC28;
            }

            .g {
                fill: #C3E879;
            }

            @keyframes typing {
                from, to { opacity: 0%; }
                50% { opacity: 60%; }
            }

            .cursor {
                animation: typing 0.75s step-end infinite;
                fill: white;
            }

            @keyframes hide1 {
                0% { opacity: 0%; }
                1% { opacity: 0%; }
                1.01% { opacity: 100%; }
                24.49% { opacity: 100%; }
                24.5% { opacity: 0%; }
                100% { opacity: 0%; }
            }

            .text1 {
                animation: hide1 16s step-end infinite;
            }

            @keyframes hide2 {
                0% { opacity: 0%; }
                25.5% { opacity: 0%; }
                25.51% { opacity: 100%; }
                49.49% { opacity: 100%; }
                49.5% { opacity: 0%; }
                100% { opacity: 0%; }
            }

            .text2 {
                animation: hide2 16s step-end infinite;
            }

            @keyframes hide3 {
                0% { opacity: 0%; }
                50.5% { opacity: 0%; }
                50.51% { opacity: 100%; }
                74.49% { opacity: 100%; }
                74.5% { opacity: 0%; }
                100% { opacity: 0%; }
            }

            .text3 {
                animation: hide3 16s step-end infinite;
            }

            @keyframes hide4 {
                0% { opacity: 0%; }
                75.5% { opacity: 0%; }
                75.51% { opacity: 100%; }
                99.5% { opacity: 100%; }
            }

            .text4 {
                animation: hide4 16s step-end infinite;
            }

            .text1 text {
                transform: translateX(calc(50% - 200px));
            }

            .text2 text, .text3 text, .text4 text {
                transform: translateX(calc(50% - 290px));
            }

            .text1 text, .text2 text, .text3 text, .text4 text {
                fill: white;
                font-family: monospace, sans-serif;
                font-style: normal;
                font-weight: 500;
                font-size: 26px;
                line-height: 36px;
                -webkit-font-smoothing: antialiased;
                -moz-osx-font-smoothing: grayscale;
            }
        ]]>
    </style>
    <g class="text1">
        <path id="pathtext1">
            <animate attributeName="d" from="m0,110 h0" to="m0,110 h700" dur="4s" begin="0s" repeatCount="indefinite" />
        </path>
        <text>
            <textPath xlink:href="#pathtext1"><tspan class="b">print</tspan><tspan class="y">(</tspan><tspan class="g">"Romulo Vieira"</tspan><tspan class="y">)</tspan><tspan class="b">;</tspan></textPath><tspan class="cursor">|</tspan>
        </text>
    </g>
    <g class="text2">
        <path id="pathtext2">
            <animate attributeName="d" from="m0,110 h0" to="m0,110 h800" dur="4s" begin="4s" repeatCount="indefinite" />
        </path>
        <text>
            <textPath xlink:href="#pathtext2"><tspan class="b">console.log</tspan><tspan class="y">(</tspan><tspan class="g">"Front-End Developer"</tspan><tspan class="y">)</tspan><tspan class="b">;</tspan></textPath><tspan class="cursor">|</tspan>
        </text>
    </g>
    <g class="text3">
        <path id="pathtext3">
            <animate attributeName="d" from="m0,110 h0" to="m0,110 h800" dur="4s" begin="8s" repeatCount="indefinite" />
        </path>
        <text>
            <textPath xlink:href="#pathtext3"><tspan class="b">System.out.println</tspan><tspan class="y">(</tspan><tspan class="g">"From Brazil"</tspan><tspan class="y">)</tspan><tspan class="b">;</tspan></textPath><tspan class="cursor">|</tspan>
        </text>
    </g>
    <g class="text4">
        <path id="pathtext4">
            <animate attributeName="d" from="m0,110 h0" to="m0,110 h800" dur="4s" begin="12s" repeatCount="indefinite" />
        </path>
        <text>
            <textPath xlink:href="#pathtext4"><tspan class="b">echo</tspan> <tspan class="g">"Linkedin: /dev-romulo-vieira"</tspan><tspan class="b">;</tspan></textPath><tspan class="cursor">|</tspan>
        </text>
    </g>
    <path d="M774.705 189.08V201H773.222V189.08H774.705ZM778.625 192.483V201H777.142V192.483H778.625ZM777.875 189.045C778.189 189.045 778.427 189.115 778.59 189.254C778.765 189.394 778.852 189.592 778.852 189.848V190.354C778.852 190.61 778.765 190.808 778.59 190.947C778.427 191.075 778.189 191.139 777.875 191.139C777.572 191.139 777.334 191.075 777.159 190.947C776.996 190.808 776.915 190.61 776.915 190.354V189.848C776.915 189.592 776.996 189.394 777.159 189.254C777.334 189.115 777.572 189.045 777.875 189.045ZM784.779 192.274C785.524 192.274 786.094 192.53 786.49 193.042C786.897 193.542 787.1 194.257 787.1 195.188V201H785.617V195.398C785.617 194.234 785.239 193.652 784.483 193.652C784.145 193.652 783.802 193.78 783.453 194.036C783.104 194.292 782.801 194.641 782.545 195.084V201H781.062V192.483H782.458V193.757C782.772 193.28 783.121 192.914 783.505 192.658C783.901 192.402 784.325 192.274 784.779 192.274ZM791.033 189.08V196.218L793.826 192.483H795.484L792.586 196.218L795.693 201H793.913L791.033 196.427V201H789.55V189.08H791.033ZM799.534 192.274C800.512 192.274 801.256 192.541 801.768 193.076C802.28 193.612 802.536 194.385 802.536 195.398V197.195H798.051V198.225C798.051 198.818 798.191 199.249 798.47 199.517C798.761 199.772 799.214 199.9 799.831 199.9C800.436 199.9 801.192 199.807 802.1 199.621L802.135 200.913C801.053 201.111 800.279 201.209 799.814 201.209C798.662 201.209 797.83 200.959 797.318 200.459C796.818 199.959 796.567 199.185 796.567 198.138V195.398C796.567 194.385 796.812 193.612 797.301 193.076C797.801 192.541 798.545 192.274 799.534 192.274ZM799.534 193.513C799.081 193.513 798.72 193.658 798.452 193.949C798.185 194.228 798.051 194.636 798.051 195.171V196.009H801.053V195.223C801.053 194.665 800.913 194.24 800.634 193.949C800.366 193.658 800 193.513 799.534 193.513ZM810.412 201H808.998V199.621C808.3 200.68 807.503 201.209 806.607 201.209C805.886 201.209 805.333 200.965 804.949 200.476C804.565 199.976 804.374 199.249 804.374 198.295V195.188C804.374 194.269 804.583 193.553 805.002 193.042C805.432 192.53 806.043 192.274 806.834 192.274C807.172 192.274 807.527 192.361 807.899 192.535C808.271 192.698 808.615 192.902 808.929 193.146V189.08H810.412V201ZM807.166 193.6C806.747 193.6 806.421 193.751 806.189 194.054C805.968 194.345 805.857 194.793 805.857 195.398V198.103C805.857 199.29 806.224 199.883 806.957 199.883C807.306 199.883 807.649 199.749 807.986 199.482C808.335 199.202 808.649 198.813 808.929 198.312V194.473C808.684 194.217 808.393 194.007 808.056 193.844C807.73 193.681 807.434 193.6 807.166 193.6ZM814.332 192.483V201H812.848V192.483H814.332ZM813.581 189.045C813.895 189.045 814.134 189.115 814.297 189.254C814.471 189.394 814.559 189.592 814.559 189.848V190.354C814.559 190.61 814.471 190.808 814.297 190.947C814.134 191.075 813.895 191.139 813.581 191.139C813.279 191.139 813.04 191.075 812.866 190.947C812.703 190.808 812.621 190.61 812.621 190.354V189.848C812.621 189.592 812.703 189.394 812.866 189.254C813.04 189.115 813.279 189.045 813.581 189.045ZM820.486 192.274C821.23 192.274 821.801 192.53 822.196 193.042C822.603 193.542 822.807 194.257 822.807 195.188V201H821.324V195.398C821.324 194.234 820.945 193.652 820.189 193.652C819.852 193.652 819.508 193.78 819.159 194.036C818.81 194.292 818.508 194.641 818.252 195.084V201H816.768V192.483H818.165V193.757C818.479 193.28 818.828 192.914 819.212 192.658C819.607 192.402 820.032 192.274 820.486 192.274ZM825.972 199.08C826.635 199.08 826.967 199.354 826.967 199.9V200.407C826.967 200.663 826.879 200.86 826.705 201C826.542 201.14 826.298 201.209 825.972 201.209C825.658 201.209 825.413 201.14 825.239 201C825.076 200.86 824.994 200.663 824.994 200.407V199.9C824.994 199.633 825.076 199.429 825.239 199.29C825.413 199.15 825.658 199.08 825.972 199.08ZM832.041 192.274C832.565 192.274 833.158 192.349 833.822 192.501L833.787 193.809C833.112 193.658 832.53 193.583 832.041 193.583C831.494 193.583 831.076 193.734 830.785 194.036C830.505 194.339 830.366 194.769 830.366 195.328V198.138C830.366 198.72 830.511 199.162 830.802 199.464C831.105 199.755 831.518 199.9 832.041 199.9C832.367 199.9 832.652 199.883 832.897 199.848C833.141 199.813 833.438 199.755 833.787 199.674L833.822 200.983C833.112 201.134 832.513 201.209 832.024 201.209C829.93 201.209 828.882 200.151 828.882 198.033V195.45C828.882 193.332 829.935 192.274 832.041 192.274ZM838.755 192.274C839.79 192.274 840.558 192.553 841.058 193.111C841.57 193.658 841.826 194.438 841.826 195.45V198.033C841.826 199.045 841.57 199.831 841.058 200.389C840.558 200.936 839.79 201.209 838.755 201.209C837.719 201.209 836.945 200.936 836.433 200.389C835.933 199.831 835.683 199.045 835.683 198.033V195.45C835.683 194.438 835.933 193.658 836.433 193.111C836.945 192.553 837.719 192.274 838.755 192.274ZM838.755 193.513C838.254 193.513 837.864 193.67 837.585 193.984C837.306 194.298 837.166 194.746 837.166 195.328V198.155C837.166 198.737 837.306 199.185 837.585 199.499C837.864 199.813 838.254 199.97 838.755 199.97C839.255 199.97 839.645 199.813 839.924 199.499C840.203 199.185 840.343 198.737 840.343 198.155V195.31C840.343 194.729 840.203 194.287 839.924 193.984C839.645 193.67 839.255 193.513 838.755 193.513ZM852.275 192.274C853.019 192.274 853.59 192.53 853.985 193.042C854.381 193.542 854.579 194.257 854.579 195.188V201H853.095V195.398C853.095 194.234 852.723 193.652 851.978 193.652C851.652 193.652 851.315 193.78 850.966 194.036C850.628 194.292 850.332 194.641 850.076 195.084V201H848.592V195.398C848.592 194.234 848.22 193.652 847.475 193.652C847.15 193.652 846.812 193.78 846.463 194.036C846.126 194.292 845.829 194.641 845.573 195.084V201H844.089V192.483H845.486V193.757C845.788 193.28 846.137 192.914 846.533 192.658C846.928 192.402 847.341 192.274 847.772 192.274C848.307 192.274 848.755 192.413 849.116 192.692C849.477 192.96 849.738 193.356 849.901 193.879C850.215 193.356 850.576 192.96 850.983 192.692C851.391 192.413 851.821 192.274 852.275 192.274ZM860.569 189.08L856.991 201H855.507L859.085 189.08H860.569ZM862.958 192.483V201H861.474V192.483H862.958ZM862.207 189.045C862.521 189.045 862.76 189.115 862.923 189.254C863.097 189.394 863.184 189.592 863.184 189.848V190.354C863.184 190.61 863.097 190.808 862.923 190.947C862.76 191.075 862.521 191.139 862.207 191.139C861.905 191.139 861.666 191.075 861.492 190.947C861.329 190.808 861.247 190.61 861.247 190.354V189.848C861.247 189.592 861.329 189.394 861.492 189.254C861.666 189.115 861.905 189.045 862.207 189.045ZM869.112 192.274C869.856 192.274 870.426 192.53 870.822 193.042C871.229 193.542 871.433 194.257 871.433 195.188V201H869.949V195.398C869.949 194.234 869.571 193.652 868.815 193.652C868.477 193.652 868.134 193.78 867.785 194.036C867.436 194.292 867.134 194.641 866.878 195.084V201H865.394V192.483H866.79V193.757C867.104 193.28 867.454 192.914 867.837 192.658C868.233 192.402 868.658 192.274 869.112 192.274ZM877.425 189.08L873.847 201H872.363L875.941 189.08H877.425ZM884.194 201H882.781V199.621C882.083 200.68 881.286 201.209 880.39 201.209C879.668 201.209 879.116 200.965 878.732 200.476C878.348 199.976 878.156 199.249 878.156 198.295V195.188C878.156 194.269 878.365 193.553 878.784 193.042C879.215 192.53 879.825 192.274 880.617 192.274C880.954 192.274 881.309 192.361 881.681 192.535C882.054 192.698 882.397 192.902 882.711 193.146V189.08H884.194V201ZM880.948 193.6C880.529 193.6 880.204 193.751 879.971 194.054C879.75 194.345 879.639 194.793 879.639 195.398V198.103C879.639 199.29 880.006 199.883 880.739 199.883C881.088 199.883 881.431 199.749 881.768 199.482C882.118 199.202 882.432 198.813 882.711 198.312V194.473C882.467 194.217 882.176 194.007 881.838 193.844C881.513 193.681 881.216 193.6 880.948 193.6ZM889.423 192.274C890.4 192.274 891.145 192.541 891.657 193.076C892.169 193.612 892.425 194.385 892.425 195.398V197.195H887.94V198.225C887.94 198.818 888.079 199.249 888.358 199.517C888.649 199.772 889.103 199.9 889.72 199.9C890.325 199.9 891.081 199.807 891.989 199.621L892.023 200.913C890.941 201.111 890.168 201.209 889.702 201.209C888.55 201.209 887.718 200.959 887.207 200.459C886.706 199.959 886.456 199.185 886.456 198.138V195.398C886.456 194.385 886.7 193.612 887.189 193.076C887.689 192.541 888.434 192.274 889.423 192.274ZM889.423 193.513C888.969 193.513 888.609 193.658 888.341 193.949C888.073 194.228 887.94 194.636 887.94 195.171V196.009H890.941V195.223C890.941 194.665 890.802 194.24 890.523 193.949C890.255 193.658 889.888 193.513 889.423 193.513ZM900.665 192.483L898.03 201H896.093L893.475 192.483H895.045L897.07 199.918L899.094 192.483H900.665ZM905.688 195.275V196.41H901.849V195.275H905.688ZM911.755 192.274C911.918 192.274 912.046 192.285 912.139 192.309V193.984C911.964 193.949 911.737 193.932 911.458 193.932C910.644 193.932 909.998 194.339 909.521 195.153V201H908.037V192.483H909.434V193.757C909.748 193.28 910.097 192.914 910.481 192.658C910.876 192.402 911.301 192.274 911.755 192.274ZM916.491 192.274C917.526 192.274 918.294 192.553 918.795 193.111C919.307 193.658 919.563 194.438 919.563 195.45V198.033C919.563 199.045 919.307 199.831 918.795 200.389C918.294 200.936 917.526 201.209 916.491 201.209C915.455 201.209 914.682 200.936 914.17 200.389C913.669 199.831 913.419 199.045 913.419 198.033V195.45C913.419 194.438 913.669 193.658 914.17 193.111C914.682 192.553 915.455 192.274 916.491 192.274ZM916.491 193.513C915.991 193.513 915.601 193.67 915.322 193.984C915.042 194.298 914.903 194.746 914.903 195.328V198.155C914.903 198.737 915.042 199.185 915.322 199.499C915.601 199.813 915.991 199.97 916.491 199.97C916.991 199.97 917.381 199.813 917.66 199.499C917.939 199.185 918.079 198.737 918.079 198.155V195.31C918.079 194.729 917.939 194.287 917.66 193.984C917.381 193.67 916.991 193.513 916.491 193.513ZM930.011 192.274C930.756 192.274 931.326 192.53 931.722 193.042C932.117 193.542 932.315 194.257 932.315 195.188V201H930.831V195.398C930.831 194.234 930.459 193.652 929.714 193.652C929.389 193.652 929.051 193.78 928.702 194.036C928.365 194.292 928.068 194.641 927.812 195.084V201H926.329V195.398C926.329 194.234 925.956 193.652 925.212 193.652C924.886 193.652 924.548 193.78 924.199 194.036C923.862 194.292 923.565 194.641 923.309 195.084V201H921.826V192.483H923.222V193.757C923.525 193.28 923.874 192.914 924.269 192.658C924.665 192.402 925.078 192.274 925.508 192.274C926.044 192.274 926.492 192.413 926.852 192.692C927.213 192.96 927.475 193.356 927.638 193.879C927.952 193.356 928.312 192.96 928.72 192.692C929.127 192.413 929.557 192.274 930.011 192.274ZM940.696 201H939.3V199.778C938.986 200.244 938.637 200.599 938.253 200.843C937.869 201.087 937.461 201.209 937.031 201.209C936.321 201.209 935.763 200.965 935.355 200.476C934.96 199.976 934.762 199.249 934.762 198.295V192.483H936.246V198.033C936.246 198.65 936.339 199.103 936.525 199.394C936.723 199.685 936.99 199.831 937.328 199.831C937.642 199.831 937.968 199.708 938.305 199.464C938.654 199.208 938.957 198.859 939.212 198.417V192.483H940.696V201ZM944.631 189.08V201H943.148V189.08H944.631ZM949.965 192.274C951 192.274 951.768 192.553 952.269 193.111C952.78 193.658 953.036 194.438 953.036 195.45V198.033C953.036 199.045 952.78 199.831 952.269 200.389C951.768 200.936 951 201.209 949.965 201.209C948.929 201.209 948.155 200.936 947.644 200.389C947.143 199.831 946.893 199.045 946.893 198.033V195.45C946.893 194.438 947.143 193.658 947.644 193.111C948.155 192.553 948.929 192.274 949.965 192.274ZM949.965 193.513C949.464 193.513 949.075 193.67 948.795 193.984C948.516 194.298 948.377 194.746 948.377 195.328V198.155C948.377 198.737 948.516 199.185 948.795 199.499C949.075 199.813 949.464 199.97 949.965 199.97C950.465 199.97 950.855 199.813 951.134 199.499C951.413 199.185 951.553 198.737 951.553 198.155V195.31C951.553 194.729 951.413 194.287 951.134 193.984C950.855 193.67 950.465 193.513 949.965 193.513ZM959.052 195.275V196.41H955.212V195.275H959.052ZM967.425 192.483L964.79 201H962.853L960.235 192.483H961.806L963.83 199.918L965.855 192.483H967.425ZM970.299 192.483V201H968.815V192.483H970.299ZM969.548 189.045C969.863 189.045 970.101 189.115 970.264 189.254C970.438 189.394 970.526 189.592 970.526 189.848V190.354C970.526 190.61 970.438 190.808 970.264 190.947C970.101 191.075 969.863 191.139 969.548 191.139C969.246 191.139 969.007 191.075 968.833 190.947C968.67 190.808 968.588 190.61 968.588 190.354V189.848C968.588 189.592 968.67 189.394 968.833 189.254C969.007 189.115 969.246 189.045 969.548 189.045ZM975.528 192.274C976.505 192.274 977.25 192.541 977.762 193.076C978.274 193.612 978.53 194.385 978.53 195.398V197.195H974.044V198.225C974.044 198.818 974.184 199.249 974.463 199.517C974.754 199.772 975.208 199.9 975.825 199.9C976.43 199.9 977.186 199.807 978.093 199.621L978.128 200.913C977.046 201.111 976.273 201.209 975.807 201.209C974.655 201.209 973.823 200.959 973.311 200.459C972.811 199.959 972.561 199.185 972.561 198.138V195.398C972.561 194.385 972.805 193.612 973.294 193.076C973.794 192.541 974.539 192.274 975.528 192.274ZM975.528 193.513C975.074 193.513 974.713 193.658 974.446 193.949C974.178 194.228 974.044 194.636 974.044 195.171V196.009H977.046V195.223C977.046 194.665 976.907 194.24 976.627 193.949C976.36 193.658 975.993 193.513 975.528 193.513ZM982.025 192.483V201H980.541V192.483H982.025ZM981.274 189.045C981.589 189.045 981.827 189.115 981.99 189.254C982.165 189.394 982.252 189.592 982.252 189.848V190.354C982.252 190.61 982.165 190.808 981.99 190.947C981.827 191.075 981.589 191.139 981.274 191.139C980.972 191.139 980.733 191.075 980.559 190.947C980.396 190.808 980.315 190.61 980.315 190.354V189.848C980.315 189.592 980.396 189.394 980.559 189.254C980.733 189.115 980.972 189.045 981.274 189.045ZM988.179 192.274C988.342 192.274 988.47 192.285 988.563 192.309V193.984C988.388 193.949 988.161 193.932 987.882 193.932C987.068 193.932 986.422 194.339 985.945 195.153V201H984.462V192.483H985.858V193.757C986.172 193.28 986.521 192.914 986.905 192.658C987.3 192.402 987.725 192.274 988.179 192.274ZM992.482 192.274C993.482 192.274 994.21 192.501 994.663 192.954C995.129 193.396 995.362 194.106 995.362 195.084V201H993.948V199.639C993.273 200.686 992.511 201.209 991.662 201.209C990.987 201.209 990.446 200.977 990.038 200.511C989.643 200.046 989.445 199.412 989.445 198.609V198.12C989.445 197.422 989.684 196.846 990.161 196.392C990.638 195.927 991.278 195.694 992.08 195.694C992.523 195.694 993.122 195.77 993.878 195.921V194.961C993.878 194.461 993.762 194.1 993.529 193.879C993.308 193.658 992.959 193.548 992.482 193.548C991.923 193.548 991.138 193.635 990.126 193.809V192.535C991.219 192.361 992.005 192.274 992.482 192.274ZM992.447 196.846C991.958 196.846 991.586 196.974 991.33 197.23C991.074 197.486 990.946 197.847 990.946 198.312V198.504C990.946 198.935 991.045 199.272 991.243 199.517C991.441 199.761 991.691 199.883 991.993 199.883C992.307 199.883 992.627 199.749 992.953 199.482C993.291 199.202 993.599 198.813 993.878 198.312V196.968C993.436 196.887 992.959 196.846 992.447 196.846Z" fill="white" fill-opacity="0.38"/>
    <path d="M867.33 164.568V165.912H862.792V169.525H866.213V170.851H862.792V176H861.309V164.568H867.33ZM872.012 167.274C872.175 167.274 872.303 167.285 872.396 167.309V168.984C872.222 168.949 871.995 168.932 871.716 168.932C870.901 168.932 870.255 169.339 869.778 170.153V176H868.295V167.483H869.691V168.757C870.005 168.28 870.354 167.914 870.738 167.658C871.134 167.402 871.559 167.274 872.012 167.274ZM876.748 167.274C877.784 167.274 878.552 167.553 879.052 168.111C879.564 168.658 879.82 169.438 879.82 170.45V173.033C879.82 174.045 879.564 174.831 879.052 175.389C878.552 175.936 877.784 176.209 876.748 176.209C875.713 176.209 874.939 175.936 874.427 175.389C873.927 174.831 873.677 174.045 873.677 173.033V170.45C873.677 169.438 873.927 168.658 874.427 168.111C874.939 167.553 875.713 167.274 876.748 167.274ZM876.748 168.513C876.248 168.513 875.858 168.67 875.579 168.984C875.3 169.298 875.16 169.746 875.16 170.328V173.155C875.16 173.737 875.3 174.185 875.579 174.499C875.858 174.813 876.248 174.97 876.748 174.97C877.249 174.97 877.638 174.813 877.918 174.499C878.197 174.185 878.336 173.737 878.336 173.155V170.31C878.336 169.729 878.197 169.287 877.918 168.984C877.638 168.67 877.249 168.513 876.748 168.513ZM885.801 167.274C886.545 167.274 887.115 167.53 887.511 168.042C887.918 168.542 888.122 169.257 888.122 170.188V176H886.638V170.398C886.638 169.234 886.26 168.652 885.504 168.652C885.167 168.652 884.823 168.78 884.474 169.036C884.125 169.292 883.823 169.641 883.567 170.084V176H882.083V167.483H883.479V168.757C883.794 168.28 884.143 167.914 884.527 167.658C884.922 167.402 885.347 167.274 885.801 167.274ZM892.316 167.483H894.585V168.705H892.316V173.696C892.316 174.138 892.404 174.458 892.578 174.656C892.764 174.842 893.049 174.935 893.433 174.935C893.922 174.935 894.399 174.877 894.864 174.761L894.899 176C894.387 176.14 893.922 176.209 893.503 176.209C892.572 176.209 891.892 176.006 891.461 175.599C891.042 175.18 890.833 174.505 890.833 173.574V168.705H889.611V167.483H890.833L891.112 165.214H892.316V167.483ZM899.965 170.275V171.41H896.125V170.275H899.965ZM908.423 164.568V165.912H903.885V169.525H908.074V170.851H903.885V174.656H908.423V176H902.401V164.568H908.423ZM914.502 167.274C915.247 167.274 915.817 167.53 916.213 168.042C916.62 168.542 916.823 169.257 916.823 170.188V176H915.34V170.398C915.34 169.234 914.962 168.652 914.206 168.652C913.868 168.652 913.525 168.78 913.176 169.036C912.827 169.292 912.524 169.641 912.268 170.084V176H910.785V167.483H912.181V168.757C912.495 168.28 912.844 167.914 913.228 167.658C913.624 167.402 914.048 167.274 914.502 167.274ZM925.137 176H923.723V174.621C923.025 175.68 922.228 176.209 921.332 176.209C920.611 176.209 920.058 175.965 919.674 175.476C919.29 174.976 919.098 174.249 919.098 173.295V170.188C919.098 169.269 919.307 168.553 919.726 168.042C920.157 167.53 920.768 167.274 921.559 167.274C921.896 167.274 922.251 167.361 922.624 167.535C922.996 167.698 923.339 167.902 923.653 168.146V164.08H925.137V176ZM921.891 168.6C921.472 168.6 921.146 168.751 920.913 169.054C920.692 169.345 920.582 169.793 920.582 170.398V173.103C920.582 174.29 920.948 174.883 921.681 174.883C922.03 174.883 922.373 174.749 922.711 174.482C923.06 174.202 923.374 173.813 923.653 173.312V169.473C923.409 169.217 923.118 169.007 922.781 168.844C922.455 168.681 922.158 168.6 921.891 168.6ZM933.99 164.359C935.375 164.359 936.439 164.755 937.184 165.546C937.94 166.325 938.318 167.454 938.318 168.932V171.794C938.318 173.213 937.94 174.307 937.184 175.075C936.439 175.831 935.346 176.209 933.903 176.209C932.914 176.209 931.878 176.175 930.796 176.105V164.429C931.843 164.382 932.908 164.359 933.99 164.359ZM933.903 165.616C933.542 165.616 933.001 165.627 932.28 165.651V174.831C932.966 174.9 933.507 174.935 933.903 174.935C934.799 174.935 935.508 174.679 936.032 174.167C936.567 173.644 936.835 172.893 936.835 171.916V168.827C936.835 167.768 936.579 166.971 936.067 166.436C935.555 165.889 934.834 165.616 933.903 165.616ZM943.472 167.274C944.449 167.274 945.194 167.541 945.706 168.076C946.218 168.612 946.474 169.385 946.474 170.398V172.195H941.988V173.225C941.988 173.818 942.128 174.249 942.407 174.517C942.698 174.772 943.152 174.9 943.769 174.9C944.374 174.9 945.13 174.807 946.037 174.621L946.072 175.913C944.99 176.111 944.217 176.209 943.751 176.209C942.599 176.209 941.767 175.959 941.255 175.459C940.755 174.959 940.505 174.185 940.505 173.138V170.398C940.505 169.385 940.749 168.612 941.238 168.076C941.738 167.541 942.483 167.274 943.472 167.274ZM943.472 168.513C943.018 168.513 942.657 168.658 942.39 168.949C942.122 169.228 941.988 169.636 941.988 170.171V171.009H944.99V170.223C944.99 169.665 944.851 169.24 944.571 168.949C944.304 168.658 943.937 168.513 943.472 168.513ZM954.714 167.483L952.079 176H950.141L947.524 167.483H949.094L951.119 174.918L953.143 167.483H954.714ZM958.845 167.274C959.823 167.274 960.567 167.541 961.079 168.076C961.591 168.612 961.847 169.385 961.847 170.398V172.195H957.362V173.225C957.362 173.818 957.502 174.249 957.781 174.517C958.072 174.772 958.525 174.9 959.142 174.9C959.747 174.9 960.503 174.807 961.411 174.621L961.446 175.913C960.364 176.111 959.59 176.209 959.125 176.209C957.973 176.209 957.141 175.959 956.629 175.459C956.129 174.959 955.878 174.185 955.878 173.138V170.398C955.878 169.385 956.123 168.612 956.611 168.076C957.112 167.541 957.856 167.274 958.845 167.274ZM958.845 168.513C958.392 168.513 958.031 168.658 957.763 168.949C957.496 169.228 957.362 169.636 957.362 170.171V171.009H960.364V170.223C960.364 169.665 960.224 169.24 959.945 168.949C959.677 168.658 959.311 168.513 958.845 168.513ZM965.342 164.08V176H963.859V164.08H965.342ZM970.676 167.274C971.712 167.274 972.48 167.553 972.98 168.111C973.492 168.658 973.748 169.438 973.748 170.45V173.033C973.748 174.045 973.492 174.831 972.98 175.389C972.48 175.936 971.712 176.209 970.676 176.209C969.641 176.209 968.867 175.936 968.355 175.389C967.855 174.831 967.604 174.045 967.604 173.033V170.45C967.604 169.438 967.855 168.658 968.355 168.111C968.867 167.553 969.641 167.274 970.676 167.274ZM970.676 168.513C970.176 168.513 969.786 168.67 969.507 168.984C969.228 169.298 969.088 169.746 969.088 170.328V173.155C969.088 173.737 969.228 174.185 969.507 174.499C969.786 174.813 970.176 174.97 970.676 174.97C971.176 174.97 971.566 174.813 971.845 174.499C972.125 174.185 972.264 173.737 972.264 173.155V170.31C972.264 169.729 972.125 169.287 971.845 168.984C971.566 168.67 971.176 168.513 970.676 168.513ZM979.711 167.274C980.444 167.274 981.014 167.524 981.421 168.024C981.829 168.524 982.032 169.246 982.032 170.188V173.295C982.032 174.202 981.794 174.918 981.317 175.442C980.851 175.953 980.217 176.209 979.414 176.209C979.112 176.209 978.786 176.145 978.437 176.017C978.1 175.901 977.785 175.761 977.495 175.599V179.229H976.011V167.483H977.407V168.722C978.047 167.756 978.815 167.274 979.711 167.274ZM979.414 168.6C979.077 168.6 978.734 168.728 978.385 168.984C978.047 169.228 977.751 169.566 977.495 169.996V174.272C977.739 174.47 978.007 174.627 978.297 174.743C978.6 174.848 978.873 174.9 979.118 174.9C980.072 174.9 980.549 174.295 980.549 173.085V170.398C980.549 169.199 980.171 168.6 979.414 168.6ZM987.087 167.274C988.064 167.274 988.809 167.541 989.321 168.076C989.833 168.612 990.089 169.385 990.089 170.398V172.195H985.603V173.225C985.603 173.818 985.743 174.249 986.022 174.517C986.313 174.772 986.767 174.9 987.384 174.9C987.989 174.9 988.745 174.807 989.652 174.621L989.687 175.913C988.605 176.111 987.831 176.209 987.366 176.209C986.214 176.209 985.382 175.959 984.87 175.459C984.37 174.959 984.12 174.185 984.12 173.138V170.398C984.12 169.385 984.364 168.612 984.853 168.076C985.353 167.541 986.098 167.274 987.087 167.274ZM987.087 168.513C986.633 168.513 986.272 168.658 986.005 168.949C985.737 169.228 985.603 169.636 985.603 170.171V171.009H988.605V170.223C988.605 169.665 988.466 169.24 988.186 168.949C987.919 168.658 987.552 168.513 987.087 168.513ZM995.818 167.274C995.981 167.274 996.109 167.285 996.202 167.309V168.984C996.027 168.949 995.8 168.932 995.521 168.932C994.707 168.932 994.061 169.339 993.584 170.153V176H992.1V167.483H993.497V168.757C993.811 168.28 994.16 167.914 994.544 167.658C994.939 167.402 995.364 167.274 995.818 167.274Z" fill="white" fill-opacity="0.38"/>
    <path d="M909.346 139.359C910.719 139.359 911.731 139.627 912.383 140.162C913.034 140.697 913.36 141.448 913.36 142.413V142.85C913.36 143.524 913.174 144.124 912.801 144.647C912.429 145.159 911.894 145.52 911.196 145.729L914.163 151H912.505L909.73 146.043C909.637 146.055 909.45 146.061 909.171 146.061C908.706 146.061 908.246 146.043 907.792 146.009V151H906.309V139.429C907.612 139.382 908.624 139.359 909.346 139.359ZM909.311 140.616C908.927 140.616 908.421 140.627 907.792 140.651V144.769C908.421 144.828 908.944 144.857 909.363 144.857C911.039 144.857 911.876 144.176 911.876 142.815V142.466C911.876 141.837 911.673 141.372 911.266 141.069C910.858 140.767 910.207 140.616 909.311 140.616ZM918.288 142.274C919.324 142.274 920.092 142.553 920.592 143.111C921.104 143.658 921.36 144.438 921.36 145.45V148.033C921.36 149.045 921.104 149.831 920.592 150.389C920.092 150.936 919.324 151.209 918.288 151.209C917.253 151.209 916.479 150.936 915.967 150.389C915.467 149.831 915.217 149.045 915.217 148.033V145.45C915.217 144.438 915.467 143.658 915.967 143.111C916.479 142.553 917.253 142.274 918.288 142.274ZM918.288 143.513C917.788 143.513 917.398 143.67 917.119 143.984C916.84 144.298 916.7 144.746 916.7 145.328V148.155C916.7 148.737 916.84 149.185 917.119 149.499C917.398 149.813 917.788 149.97 918.288 149.97C918.789 149.97 919.178 149.813 919.458 149.499C919.737 149.185 919.877 148.737 919.877 148.155V145.31C919.877 144.729 919.737 144.287 919.458 143.984C919.178 143.67 918.789 143.513 918.288 143.513ZM931.809 142.274C932.553 142.274 933.123 142.53 933.519 143.042C933.915 143.542 934.112 144.257 934.112 145.188V151H932.629V145.398C932.629 144.234 932.257 143.652 931.512 143.652C931.186 143.652 930.849 143.78 930.5 144.036C930.162 144.292 929.866 144.641 929.61 145.084V151H928.126V145.398C928.126 144.234 927.754 143.652 927.009 143.652C926.683 143.652 926.346 143.78 925.997 144.036C925.659 144.292 925.363 144.641 925.107 145.084V151H923.623V142.483H925.02V143.757C925.322 143.28 925.671 142.914 926.067 142.658C926.462 142.402 926.875 142.274 927.306 142.274C927.841 142.274 928.289 142.413 928.65 142.692C929.01 142.96 929.272 143.356 929.435 143.879C929.749 143.356 930.11 142.96 930.517 142.692C930.924 142.413 931.355 142.274 931.809 142.274ZM942.493 151H941.097V149.778C940.783 150.244 940.434 150.599 940.05 150.843C939.666 151.087 939.259 151.209 938.828 151.209C938.119 151.209 937.56 150.965 937.153 150.476C936.757 149.976 936.56 149.249 936.56 148.295V142.483H938.043V148.033C938.043 148.65 938.136 149.103 938.322 149.394C938.52 149.685 938.788 149.831 939.125 149.831C939.439 149.831 939.765 149.708 940.102 149.464C940.451 149.208 940.754 148.859 941.01 148.417V142.483H942.493V151ZM946.428 139.08V151H944.945V139.08H946.428ZM951.762 142.274C952.798 142.274 953.566 142.553 954.066 143.111C954.578 143.658 954.834 144.438 954.834 145.45V148.033C954.834 149.045 954.578 149.831 954.066 150.389C953.566 150.936 952.798 151.209 951.762 151.209C950.727 151.209 949.953 150.936 949.441 150.389C948.941 149.831 948.691 149.045 948.691 148.033V145.45C948.691 144.438 948.941 143.658 949.441 143.111C949.953 142.553 950.727 142.274 951.762 142.274ZM951.762 143.513C951.262 143.513 950.872 143.67 950.593 143.984C950.314 144.298 950.174 144.746 950.174 145.328V148.155C950.174 148.737 950.314 149.185 950.593 149.499C950.872 149.813 951.262 149.97 951.762 149.97C952.263 149.97 952.652 149.813 952.932 149.499C953.211 149.185 953.35 148.737 953.35 148.155V145.31C953.35 144.729 953.211 144.287 952.932 143.984C952.652 143.67 952.263 143.513 951.762 143.513ZM967.965 139.568L964.527 151H962.572L959.238 139.568H960.809L963.549 149.569L966.394 139.568H967.965ZM970.903 142.483V151H969.42V142.483H970.903ZM970.153 139.045C970.467 139.045 970.705 139.115 970.868 139.254C971.043 139.394 971.13 139.592 971.13 139.848V140.354C971.13 140.61 971.043 140.808 970.868 140.947C970.705 141.075 970.467 141.139 970.153 141.139C969.85 141.139 969.612 141.075 969.437 140.947C969.274 140.808 969.193 140.61 969.193 140.354V139.848C969.193 139.592 969.274 139.394 969.437 139.254C969.612 139.115 969.85 139.045 970.153 139.045ZM976.132 142.274C977.11 142.274 977.854 142.541 978.366 143.076C978.878 143.612 979.134 144.385 979.134 145.398V147.195H974.649V148.225C974.649 148.818 974.788 149.249 975.068 149.517C975.359 149.772 975.812 149.9 976.429 149.9C977.034 149.9 977.79 149.807 978.698 149.621L978.733 150.913C977.651 151.111 976.877 151.209 976.412 151.209C975.26 151.209 974.428 150.959 973.916 150.459C973.415 149.959 973.165 149.185 973.165 148.138V145.398C973.165 144.385 973.41 143.612 973.898 143.076C974.399 142.541 975.143 142.274 976.132 142.274ZM976.132 143.513C975.679 143.513 975.318 143.658 975.05 143.949C974.783 144.228 974.649 144.636 974.649 145.171V146.009H977.651V145.223C977.651 144.665 977.511 144.24 977.232 143.949C976.964 143.658 976.598 143.513 976.132 143.513ZM982.629 142.483V151H981.146V142.483H982.629ZM981.879 139.045C982.193 139.045 982.432 139.115 982.594 139.254C982.769 139.394 982.856 139.592 982.856 139.848V140.354C982.856 140.61 982.769 140.808 982.594 140.947C982.432 141.075 982.193 141.139 981.879 141.139C981.576 141.139 981.338 141.075 981.163 140.947C981 140.808 980.919 140.61 980.919 140.354V139.848C980.919 139.592 981 139.394 981.163 139.254C981.338 139.115 981.576 139.045 981.879 139.045ZM988.783 142.274C988.946 142.274 989.074 142.285 989.167 142.309V143.984C988.993 143.949 988.766 143.932 988.487 143.932C987.672 143.932 987.026 144.339 986.549 145.153V151H985.066V142.483H986.462V143.757C986.776 143.28 987.125 142.914 987.509 142.658C987.905 142.402 988.33 142.274 988.783 142.274ZM993.086 142.274C994.087 142.274 994.814 142.501 995.268 142.954C995.733 143.396 995.966 144.106 995.966 145.084V151H994.552V149.639C993.877 150.686 993.115 151.209 992.266 151.209C991.591 151.209 991.05 150.977 990.643 150.511C990.247 150.046 990.05 149.412 990.05 148.609V148.12C990.05 147.422 990.288 146.846 990.765 146.392C991.242 145.927 991.882 145.694 992.685 145.694C993.127 145.694 993.726 145.77 994.483 145.921V144.961C994.483 144.461 994.366 144.1 994.133 143.879C993.912 143.658 993.563 143.548 993.086 143.548C992.528 143.548 991.742 143.635 990.73 143.809V142.535C991.824 142.361 992.609 142.274 993.086 142.274ZM993.051 146.846C992.563 146.846 992.19 146.974 991.934 147.23C991.678 147.486 991.55 147.847 991.55 148.312V148.504C991.55 148.935 991.649 149.272 991.847 149.517C992.045 149.761 992.295 149.883 992.598 149.883C992.912 149.883 993.232 149.749 993.558 149.482C993.895 149.202 994.203 148.813 994.483 148.312V146.968C994.04 146.887 993.563 146.846 993.051 146.846Z" fill="white" fill-opacity="0.65"/>
    <defs>
        <linearGradient id="paint0_linear" x1="-3.7849e-06" y1="115" x2="1016" y2="115" gradientUnits="userSpaceOnUse">
            <stop offset="0%" stop-color="#04BFFE">
                <animate attributeName="stop-color" values="#04BFFE; #AE02FF; #04BFFE" dur="2s" repeatCount="indefinite"></animate>
            </stop>
            <stop offset="100%" stop-color="#AE02FF">
                <animate attributeName="stop-color" values="#AE02FF; #04BFFE; #AE02FF" dur="2s" repeatCount="indefinite"></animate>
            </stop>
        </linearGradient>
    </defs>
</svg>
